<svg xmlns="http://www.w3.org/2000/svg" viewBox="0 0 1117.12 1279.45"><defs><style>.cls-1{fill:#0e192d;}.cls-2{fill:#65c3c2;}.cls-3{fill:none;stroke:#65c3c2;stroke-miterlimit:10;stroke-width:30px;}</style></defs><title>logo-ic</title><g id="Layer_2" data-name="Layer 2"><g id="Layer_4" data-name="Layer 4"><path class="cls-1" d="M1083.21,921.13h0V359.2h0A21.51,21.51,0,1,0,1065,326.3L577.17,44.65a21.5,21.5,0,1,0-37.22,0L52.12,326.3a21.49,21.49,0,1,0-18.21,32.9h0V921.13h0a21.5,21.5,0,1,0,18.61,32.24L540,1234.79a21.5,21.5,0,1,0,37.22,0L1064.6,953.37a21.49,21.49,0,1,0,18.61-32.24Z"/><path id="leter" class="cls-2" d="M695.07,332.13a28.9,28.9,0,0,0-49.42,0H625a28.9,28.9,0,0,0-49.42,0h-271V433H500.92v574.88H615.24V442.74a29.19,29.19,0,0,0,9.77-9.81h20.58a28.9,28.9,0,0,0,49.48.11H812.62V332.13Zm-94.83,1A13.91,13.91,0,1,1,586.33,347,13.91,13.91,0,0,1,600.24,333.12Zm0,98.72a13.91,13.91,0,1,1,13.91-13.91A13.91,13.91,0,0,1,600.24,431.84Zm70.12,0a13.91,13.91,0,1,1,13.91-13.91A13.91,13.91,0,0,1,670.36,431.84Zm0-70.9A13.91,13.91,0,1,1,684.27,347,13.91,13.91,0,0,1,670.36,360.94Z"/><g id="poliO"><line id="l1" class="cls-3" x1="1069.3" y1="328.79" x2="570.6" y2="40.86"/><line id="l2" class="cls-3" x1="1083.21" y1="928.72" x2="1083.21" y2="351.61"/><line id="l3" class="cls-3" x1="570.6" y1="1238.58" x2="1071.16" y2="949.59"/><line id="l4" class="cls-3" x1="45.96" y1="949.58" x2="546.51" y2="1238.58"/><line id="l5" class="cls-3" x1="33.91" y1="351.61" x2="33.91" y2="928.72"/><line id="l6" class="cls-3" x1="546.52" y1="40.86" x2="45.56" y2="330.09"/><g id="el6"><path class="cls-2" d="M1083.21,323.79a13.91,13.91,0,1,1-13.91,13.91,13.91,13.91,0,0,1,13.91-13.91m0-20a33.91,33.91,0,1,0,33.91,33.91,33.95,33.95,0,0,0-33.91-33.91Z"/></g><g id="el5"><path class="cls-2" d="M1083.21,928.72a13.91,13.91,0,1,1-13.91,13.91,13.91,13.91,0,0,1,13.91-13.91m0-20a33.91,33.91,0,1,0,33.91,33.91,33.95,33.95,0,0,0-33.91-33.91Z"/></g><g id="el4"><path class="cls-2" d="M558.56,1231.63a13.91,13.91,0,1,1-13.91,13.91,13.91,13.91,0,0,1,13.91-13.91m0-20a33.91,33.91,0,1,0,33.91,33.91,33.95,33.95,0,0,0-33.91-33.91Z"/></g><g id="el3"><path class="cls-2" d="M33.91,928.72A13.91,13.91,0,1,1,20,942.63a13.91,13.91,0,0,1,13.91-13.91m0-20a33.91,33.91,0,1,0,33.91,33.91,33.95,33.95,0,0,0-33.91-33.91Z"/></g><g id="el2"><path class="cls-2" d="M33.91,323.79A13.91,13.91,0,1,1,20,337.7a13.91,13.91,0,0,1,13.91-13.91m0-20A33.91,33.91,0,1,0,67.82,337.7a33.95,33.95,0,0,0-33.91-33.91Z"/></g><g id="el1"><path class="cls-2" d="M558.56,20a13.91,13.91,0,1,1-13.91,13.91A13.91,13.91,0,0,1,558.56,20m0-20a33.91,33.91,0,1,0,33.91,33.91A33.95,33.95,0,0,0,558.56,0Z"/></g></g><g id="poli1"><line id="l1-2" data-name="l1" class="cls-3" x1="987.18" y1="378.78" x2="570.6" y2="138.28"/><line id="l2-2" data-name="l2" class="cls-3" x1="998.85" y1="880.01" x2="998.85" y2="400.17"/><line id="l3-2" data-name="l3" class="cls-3" x1="570.61" y1="1141.17" x2="986.8" y2="900.88"/><line id="l4-2" data-name="l4" class="cls-3" x1="130.32" y1="900.88" x2="546.51" y2="1141.17"/><line id="l5-2" data-name="l5" class="cls-3" x1="118.27" y1="400.17" x2="118.27" y2="880.01"/><line id="l6-2" data-name="l6" class="cls-3" x1="546.52" y1="138.27" x2="129.98" y2="378.76"/><g id="el6-2" data-name="el6"><path class="cls-2" d="M998.85,372.35a13.91,13.91,0,1,1-13.91,13.91,13.91,13.91,0,0,1,13.91-13.91m0-20a33.91,33.91,0,1,0,33.91,33.91,33.95,33.95,0,0,0-33.91-33.91Z"/></g><g id="el5-2" data-name="el5"><path class="cls-2" d="M998.85,880a13.92,13.92,0,1,1-13.91,13.91A13.91,13.91,0,0,1,998.85,880m0-20a33.92,33.92,0,1,0,33.91,33.91A34,34,0,0,0,998.85,860Z"/></g><g id="el4-2" data-name="el4"><path class="cls-2" d="M558.56,1134.21a13.92,13.92,0,1,1-13.91,13.92,13.92,13.92,0,0,1,13.91-13.92m0-20a33.92,33.92,0,1,0,33.91,33.92,34,34,0,0,0-33.91-33.92Z"/></g><g id="el3-2" data-name="el3"><path class="cls-2" d="M118.27,880a13.92,13.92,0,1,1-13.91,13.91A13.91,13.91,0,0,1,118.27,880m0-20a33.92,33.92,0,1,0,33.91,33.91A34,34,0,0,0,118.27,860Z"/></g><g id="el2-2" data-name="el2"><path class="cls-2" d="M118.27,372.35a13.91,13.91,0,1,1-13.91,13.91,13.91,13.91,0,0,1,13.91-13.91m0-20a33.91,33.91,0,1,0,33.91,33.91,33.95,33.95,0,0,0-33.91-33.91Z"/></g><g id="el1-2" data-name="el1"><path class="cls-2" d="M558.56,117.41a13.91,13.91,0,1,1-13.91,13.91,13.91,13.91,0,0,1,13.91-13.91m0-20a33.91,33.91,0,1,0,33.91,33.91,33.95,33.95,0,0,0-33.91-33.91Z"/></g></g></g></g></svg>